<?xml version="1.0" standalone="no"?>
<!DOCTYPE svg PUBLIC "-//W3C//DTD SVG 20010904//EN"
 "http://www.w3.org/TR/2001/REC-SVG-20010904/DTD/svg10.dtd">
<svg version="1.0" xmlns="http://www.w3.org/2000/svg"
 width="512.000000pt" height="512.000000pt" viewBox="0 0 512.000000 512.000000"
 preserveAspectRatio="xMidYMid meet">
<metadata>
Created by potrace 1.14, written by Peter Selinger 2001-2017
</metadata>
<g transform="translate(0.000000,512.000000) scale(0.100000,-0.100000)"
fill="#000000" stroke="none">
<path d="M4463 2990 c-166 -30 -307 -135 -370 -277 -15 -34 -31 -63 -34 -63
-3 0 -18 27 -34 60 -16 33 -51 84 -78 113 -27 29 -35 35 -18 14 87 -106 115
-184 109 -301 -5 -104 -37 -176 -113 -255 -194 -203 -536 -203 -730 0 -76 79
-108 151 -113 255 -6 117 22 195 109 301 17 21 9 15 -18 -14 -43 -46 -74 -101
-111 -193 l-10 -25 -7 30 c-15 57 -63 141 -110 191 -28 29 -35 34 -16 11 87
-105 115 -184 109 -301 -5 -104 -37 -176 -113 -255 -194 -203 -536 -203 -730
0 -76 79 -108 151 -113 255 -6 117 22 195 109 301 17 21 9 14 -19 -15 -28 -30
-63 -82 -78 -117 -16 -36 -34 -65 -39 -65 -6 0 -17 17 -24 38 -19 52 -76 135
-117 172 -178 156 -453 175 -648 45 -93 -62 -177 -179 -192 -268 -4 -20 -11
-40 -15 -43 -9 -5 -11 -2 -25 55 -7 25 -9 5 -9 -75 0 -101 -2 -114 -31 -175
-75 -158 -248 -259 -444 -259 -196 0 -369 101 -444 259 -29 61 -31 74 -31 173
0 109 -11 113 -22 8 -16 -155 85 -332 234 -413 66 -35 190 -67 263 -67 73 0
197 32 263 67 103 56 194 170 222 281 6 24 15 43 20 43 5 0 14 -19 20 -43 28
-111 119 -225 222 -281 66 -35 190 -67 263 -67 65 0 191 30 247 59 99 50 190
150 224 244 7 20 18 37 24 37 5 0 23 -29 38 -63 53 -119 152 -206 291 -255 59
-21 89 -25 176 -25 123 0 209 24 304 88 89 59 141 130 194 265 l10 25 7 -30
c13 -49 61 -137 99 -181 48 -56 134 -112 220 -142 102 -36 250 -36 352 0 139
49 238 136 291 255 15 34 30 63 33 63 3 0 20 -28 37 -62 59 -119 151 -198 287
-246 59 -21 89 -25 176 -25 87 0 117 4 176 25 133 47 227 126 284 239 120 235
-8 511 -279 605 -77 27 -202 37 -278 24z"/>
<path d="M2523 2983 c15 -2 39 -2 55 0 15 2 2 4 -28 4 -30 0 -43 -2 -27 -4z"/>
<path d="M3533 2983 c15 -2 39 -2 55 0 15 2 2 4 -28 4 -30 0 -43 -2 -27 -4z"/>
<path d="M2229 2883 c-13 -16 -12 -17 4 -4 16 13 21 21 13 21 -2 0 -10 -8 -17
-17z"/>
<path d="M2850 2896 c0 -2 8 -10 18 -17 15 -13 16 -12 3 4 -13 16 -21 21 -21
13z"/>
<path d="M3239 2883 c-13 -16 -12 -17 4 -4 16 13 21 21 13 21 -2 0 -10 -8 -17
-17z"/>
<path d="M3860 2896 c0 -2 8 -10 18 -17 15 -13 16 -12 3 4 -13 16 -21 21 -21
13z"/>
</g>
</svg>
