<?xml version="1.0" encoding="UTF-8"?>
<svg id="Layer_2" data-name="Layer 2" xmlns="http://www.w3.org/2000/svg" viewBox="0 0 157.44 163.4">
  <defs>
    <style>
      .cls-1 {
        fill: #319966;
      }

      .cls-2 {
        fill: #d4e2d6;
        font-family: Marcher-Bold, Marcher;
        font-size: 48px;
        font-weight: 700;
      }
    </style>
  </defs>
  <g id="ArtboardDarkColours">
    <g>
      <rect class="cls-1" x=".89" y=".55" width="48.71" height="48.71"/>
      <text class="cls-2" transform="translate(11.28 41.66)"><tspan x="0" y="0">L</tspan></text>
    </g>
    <g>
      <rect class="cls-1" x="55.12" width="48.71" height="48.71"/>
      <text class="cls-2" transform="translate(72.59 41.66)"><tspan x="0" y="0">I</tspan></text>
    </g>
    <rect class="cls-1" x=".11" y="54.24" width="48.71" height="48.71"/>
    <text class="cls-2" transform="translate(10.71 95.9)"><tspan x="0" y="0">T</tspan></text>
    <rect class="cls-1" x="54.37" y="54.24" width="48.71" height="48.71"/>
    <text class="cls-2" transform="translate(63.33 95.94)"><tspan x="0" y="0">R</tspan></text>
    <rect class="cls-1" x="108.61" y="54.24" width="48.71" height="48.71"/>
    <text class="cls-2" transform="translate(118.21 95.9)"><tspan x="0" y="0">E</tspan></text>
    <g>
      <rect class="cls-1" y="109.16" width="48.71" height="48.71"/>
      <text class="cls-2" transform="translate(7.66 150.34)"><tspan x="0" y="0">A</tspan></text>
    </g>
    <g>
      <rect class="cls-1" x="54.37" y="109.16" width="48.71" height="48.71"/>
      <text class="cls-2" transform="translate(61.71 149.81)"><tspan x="0" y="0">C</tspan></text>
    </g>
    <g>
      <rect class="cls-1" x="108.73" y="109.16" width="48.71" height="48.71"/>
      <text class="cls-2" transform="translate(115.34 150.34)"><tspan x="0" y="0">H</tspan></text>
    </g>
  </g>
</svg>