<?xml version="1.0" encoding="UTF-8"?>
<svg width="24px" height="24px" viewBox="0 0 24 24" version="1.1" xmlns="http://www.w3.org/2000/svg" xmlns:xlink="http://www.w3.org/1999/xlink">
    <title>Info</title>
    <g id="Page-1" stroke="none" stroke-width="1" fill="none" fill-rule="evenodd" stroke-linecap="round" stroke-linejoin="round">
        <g id="Info" transform="translate(1.000000, 1.000000)" stroke="#FFFFFF" stroke-width="2">
            <path d="M12.2055556,15.867222 L10.985,15.867222 L10.985,10.9849998 L9.76444447,10.9849998 M21.9700001,10.9849998 C21.9700001,14.9095624 19.876271,18.5360077 16.4775001,20.498289 C13.0787292,22.4605703 8.89127083,22.4605703 5.49249997,20.498289 C2.09372911,18.5360077 5.42035554e-16,14.9095624 5.42035554e-16,10.9849998 C5.42035554e-16,4.9181519 4.91815213,0 10.985,0 C17.0518479,0 21.9700001,4.9181519 21.9700001,10.9849998 L21.9700001,10.9849998 Z M10.3747223,7.32333336 C11.3858636,7.32333336 12.2055556,6.50364135 12.2055556,5.49250002 C12.2055556,4.48135868 11.3858636,3.66166668 10.3747223,3.66166668 C9.36358092,3.66166668 8.54388892,4.48135868 8.54388892,5.49250002 C8.54388892,6.50364135 9.36358092,7.32333336 10.3747223,7.32333336 Z" id="Shape"></path>
        </g>
    </g>
</svg>