<?xml version="1.0" encoding="UTF-8"?>
<svg width="26px" height="23px" viewBox="0 0 26 23" version="1.1" xmlns="http://www.w3.org/2000/svg" xmlns:xlink="http://www.w3.org/1999/xlink">
    <title>statistics-svgrepo-com</title>
    <g id="Page-1" stroke="none" stroke-width="1" fill="none" fill-rule="evenodd">
        <g id="statistics-svgrepo-com" transform="translate(0.000000, 0.620241)" fill="#FFFFFF" fill-rule="nonzero">
            <path d="M25.3158282,15.1848912 L23.045925,15.1848912 C22.6680979,15.1848912 22.3618097,15.4911794 22.3618097,15.8690065 L22.3618097,21.2870163 C22.3618097,21.6648433 22.6680979,21.9711881 23.045925,21.9711881 L25.3158282,21.9711881 C25.6936552,21.9711881 26,21.6648999 26,21.2870163 L26,15.8690065 C26,15.4911794 25.6937118,15.1848912 25.3158282,15.1848912 Z" id="Path"></path>
            <path d="M19.7253899,12.5834774 L17.4554867,12.5834774 C17.0776596,12.5834774 16.7713148,12.8897656 16.7713148,13.2675927 L16.7713148,21.2870163 C16.7713148,21.6648433 17.077603,21.9711881 17.4554867,21.9711881 L19.7253899,21.9711881 C20.103217,21.9711881 20.4095052,21.6648999 20.4095052,21.2870163 L20.4095052,13.2676492 C20.4095617,12.8897656 20.1032735,12.5834774 19.7253899,12.5834774 Z" id="Path"></path>
            <path d="M8.54451332,15.1848912 L6.27461011,15.1848912 C5.89678303,15.1848912 5.59049483,15.4911794 5.59049483,15.8690065 L5.59049483,21.2870163 C5.59049483,21.6648433 5.89678303,21.9711881 6.27461011,21.9711881 L8.54451332,21.9711881 C8.9223404,21.9711881 9.22868515,21.6648999 9.22868515,21.2870163 L9.22868515,15.8690065 C9.22868515,15.4911794 8.9223404,15.1848912 8.54451332,15.1848912 Z" id="Path"></path>
            <path d="M2.95407504,12.5834774 L0.684171833,12.5834774 C0.3062882,12.5834774 0,12.8897656 0,13.2676492 L0,21.2870728 C0,21.6648999 0.3062882,21.9712446 0.684171833,21.9712446 L2.95407504,21.9712446 C3.33190212,21.9712446 3.63819032,21.6649564 3.63819032,21.2870728 L3.63819032,13.2676492 C3.63819032,12.8897656 3.33190212,12.5834774 2.95407504,12.5834774 Z" id="Path"></path>
            <path d="M14.1349516,9.12461496 L11.8650484,9.12461496 C11.4872213,9.12461496 11.1808766,9.43090316 11.1808766,9.80878679 L11.1808766,21.2870728 C11.1808766,21.6648999 11.4871648,21.9712446 11.8650484,21.9712446 L14.1349516,21.9712446 C14.5127787,21.9712446 14.8191234,21.6649564 14.8191234,21.2870728 L14.8191234,9.80878679 C14.8191234,9.43090316 14.5127787,9.12461496 14.1349516,9.12461496 Z" id="Path"></path>
            <path d="M24.7060228,11.8195666 C25.16636,11.8195666 25.55431,11.4443409 25.55431,10.9711663 L25.55431,8.22955895 C25.55431,7.76107825 25.1745035,7.38127184 24.7060228,7.38127184 C24.2375421,7.38127184 23.8577357,7.76107825 23.8577357,8.22955895 L23.8577357,8.91491838 L15.2420228,0.2501745 C15.0639956,0.0711859192 14.8158434,-0.0194111444 14.5640152,0.00349260765 C14.3125829,0.0262832547 14.0843371,0.159860199 13.9413159,0.367973304 L7.45050571,9.81551653 L1.74984666,6.18394285 C1.35471452,5.93222779 0.830303426,6.04844312 0.578644916,6.44363181 C0.326929853,6.83876395 0.443145188,7.36311849 0.838333877,7.61483355 L7.22995106,11.6866117 C7.37104948,11.7764736 7.52888744,11.8195666 7.68497227,11.8195666 C7.95546275,11.8195666 8.22080696,11.6903442 8.38486569,11.4515796 L14.7603654,2.17188412 L22.6662316,10.1228792 L21.9644154,10.1228792 C21.4959347,10.1228792 21.1161283,10.5026856 21.1161283,10.9711663 C21.1161283,11.439647 21.4959347,11.8195666 21.9644154,11.8195666 C22.3438825,11.8195666 24.3197694,11.8195666 24.7039869,11.8195666 L24.7060228,11.8195666 Z" id="Path"></path>
        </g>
    </g>
</svg>